# AST/ASF file generated using VICON BodyLanguage
# -----------------------------------------------
:version 1.10
:name VICON
:units
  mass 1.0
  length 0.45
  angle deg
:documentation
   .ast/.asf automatically generated from VICON data using
   VICON BodyBuilder and BodyLanguage model FoxedUp or BRILLIANT.MOD
:root
   order TX TY TZ RX RY RZ
   axis XYZ
   position 0 0 0  
   orientation 0 0 0 
:bonedata
  begin
     id 1 
     name lhipjoint
     direction 0.78388 -0.462562 0.414208 
     length 3.01181 
     axis 0 0 0  XYZ
  end
  begin
     id 2 
     name lfemur
     direction 0.34202 -0.939693 0  
     length 6.04673  
     axis 0 0 20  XYZ
    dof rx ry rz
    limits (-160.0 20.0)
           (-70.0 70.0)
           (-60.0 70.0)
  end
  begin
     id 3 
     name ltibia
     direction 0.34202 -0.939693 0   
     length 7.211   
     axis 0 0 20   XYZ
    dof rx
    limits (-10.0 170.0)
  end
  begin
     id 4 
     name lfoot
     direction 0.121887 -0.334882 0.934344   
     length 2.13567   
     axis -90 7.62852e-016 20   XYZ
    dof rx rz
    limits (-45.0 90.0)
           (-70.0 20.0)
  end
  begin
     id 5 
     name ltoes
     direction 1.53555e-011 -4.2179e-011 1   
     length 1.05957   
     axis -90 7.62852e-016 20   XYZ
    dof rx
    limits (-90.0 20.0)
  end
  begin
     id 6 
     name rhipjoint
     direction -0.769387 -0.475875 0.426129   
     length 2.92756  
     axis 0 0 0  XYZ 
  end
  begin
     id 7 
     name rfemur
     direction -0.34202 -0.939693 0   
     length 6.35468   
     axis 0 0 -20   XYZ
    dof rx ry rz
    limits (-160.0 20.0)
           (-70.0 70.0)
           (-70.0 60.0)
  end
  begin
     id 8 
     name rtibia
     direction -0.34202 -0.939693 0   
     length 7.37886   
     axis 0 0 -20   XYZ
    dof rx
    limits (-10.0 170.0)
 end
 begin
     id 9 
     name rfoot
     direction -0.101763 -0.279592 0.954711   
     length 2.21478  
     axis -90 -7.62852e-016 -20   XYZ
    dof rx rz
    limits (-45.0 90.0)
           (-20.0 70.0)
  end
  begin
     id 10 
     name rtoes
     direction -1.53494e-011 -4.21851e-011 1   
     length 1.10506   
     axis -90 -7.62852e-016 -20   XYZ
    dof rx
    limits (-90.0 20.0)
  end
  begin
     id 11 
     name lowerback
     direction 0.00747405 0.999267 0.0375481   
     length 2.13259   
     axis 0 0 0   XYZ
    dof rx ry rz
    limits (-20.0 45.0)
           (-30.0 30.0)
           (-30.0 30.0)
  end
  begin
     id 12 
     name upperback
     direction 0.00661626 0.996177 0.0871029   
     length 2.10528   
     axis 0 0 0   XYZ
    dof rx ry rz
    limits (-20.0 45.0)
           (-30.0 30.0)
           (-30.0 30.0)
  end
  begin
     id 13 
     name thorax
     direction 0.00320659 0.997679 0.0680167   
     length 2.11338   
     axis 0 0 0   XYZ
    dof rx ry rz
    limits (-20.0 45.0)
           (-30.0 30.0)
           (-30.0 30.0)
  end
  begin
     id 14 
     name lowerneck
     direction 0.0374841 0.973033 0.227602   
     length 1.42765   
     axis 0 0 0   XYZ
    dof rx ry rz
    limits (-20.0 45.0)
           (-30.0 30.0)
           (-30.0 30.0)
  end
  begin
     id 15 
     name upperneck
     direction 0.00481585 0.989155 -0.146795   
     length 1.47593   
     axis 0 0 0   XYZ
    dof rx ry rz
    limits (-20.0 45.0)
           (-30.0 30.0)
           (-30.0 30.0)
  end
  begin
     id 16
     name head
     direction -0.00292522 0.997206 -0.0746423  
     length 1.48116  
     axis 0 0 0   XYZ
    dof rx ry rz
    limits (-20.0 45.0)
           (-30.0 30.0)
           (-30.0 30.0)
  end
  begin
     id 17 
     name lclavicle
     direction 0.951444 0.305606 0.0368784  
     length 3.01855  
     axis 0 0 0   XYZ
    dof ry rz
    limits (-20.0 10.0)
           (0.0 20.0)
  end
  begin
     id 18 
     name lhumerus
     direction 1 -4.48977e-011 2.61664e-027   
     length 5.52731   
     axis 180 -30 -90   XYZ
    dof rx ry rz
    limits (-60.0 90.0)
           (-90.0 90.0)
           (-90.0 90.0)
  end
  begin
     id 19
     name lradius
     direction 1 -4.48944e-011 8.22157e-027   
     length 3.11059   
     axis 180 -30 -90   XYZ
    dof rx
    limits (-10.0 170.0)
  end
  begin
     id 20
     name lwrist
     direction 1 -4.48976e-011 1.5779e-026   
     length 1.5553   
     axis -1.15221e-014 90 90   XYZ
    dof ry
    limits (-180.0 0.0)
 end
  begin
     id 21 
     name lhand
     direction 1 -4.49025e-011 3.1558e-026   
     length 0.419626   
     axis -2.01367e-014 90 90   XYZ
    dof rx rz
    limits (-90.0 90.0)
           (-45.0 45.0)
  end
  begin
     id 22 
     name lfingers
     direction 1 -4.4904e-011 6.31161e-026   
     length 0.338313   
     axis -4.02734e-014 90 90   XYZ
    dof rx
    limits (0.0 90.0)
  end
  begin
     id 23
     name lthumb
     direction 0.707107 -6.35004e-011 0.707107   
     length 0.485752   
     axis -90 45 2.85299e-015   XYZ
    dof rx rz
    limits (-45.0 45.0)
           (-45.0 45.0)
  end
  begin
     id 24 
     name rclavicle
     direction -0.968876 0.223791 0.105816   
     length 3.04177  
     axis 0 0 0   XYZ 
    dof ry rz
    limits (-10.0 20.0)
           (-20.0 0.0)
  end
  begin
     id 25 
     name rhumerus
     direction -1 -4.48962e-011 -1.01384e-027  
     length 5.25396   
     axis 180 30 90   XYZ
    dof rx ry rz
    limits (-90.0 60.0)
           (-90.0 90.0)
           (-90.0 90.0)
  end
  begin
     id 26 
     name rradius
     direction -1 -4.48955e-011 8.88542e-027   
     length 3.10567   
     axis 180 30 90   XYZ
    dof rx
    limits (-10.0 170.0)
  end
  begin
     id 27 
     name rwrist
     direction -1 -4.48994e-011 1.5779e-026   
     length 1.55283   
     axis -1.15221e-014 -90 -90   XYZ
    dof ry
    limits (-180.0 0.0)
  end
  begin
     id 28
     name rhand
     direction -1 -4.48891e-011 3.1558e-026   
     length 0.498676   
     axis -2.01367e-014 -90 -90   XYZ
    dof rx rz
    limits (-90.0 90.0)
           (-45.0 45.0)
  end
  begin
     id 29
     name rfingers
     direction -1 -4.48972e-011 6.31161e-026   
     length 0.402045   
     axis -4.02734e-014 -90 -90   XYZ
    dof rx
    limits (0.0 90.0)
  end
  begin
     id 30
     name rthumb
     direction -0.707107 -6.34849e-011 0.707107   
     length 0.577259   
     axis -90 -45 -2.85299e-015   XYZ
    dof rx rz
    limits (-45.0 45.0)
           (-45.0 45.0)
  end
:hierarchy
  begin
    root lhipjoint rhipjoint lowerback
    lhipjoint lfemur
    lfemur ltibia
    ltibia lfoot
    lfoot ltoes
    rhipjoint rfemur
    rfemur rtibia
    rtibia rfoot
    rfoot rtoes
    lowerback upperback
    upperback thorax
    thorax lowerneck lclavicle rclavicle
    lowerneck upperneck
    upperneck head
    lclavicle lhumerus
    lhumerus lradius
    lradius lwrist
    lwrist lhand lthumb
    lhand lfingers
    rclavicle rhumerus
    rhumerus rradius
    rradius rwrist
    rwrist rhand rthumb
    rhand rfingers
  end

#!OML:ASF H:\Pregnant\Project 1\Capture day 1\Session 1\femalepreg.ASF
:FULLY-SPECIFIED
:DEGREES
18
root 8.82283 15.3303 23.2203 -154.38 -4.73598 -178.83
lowerback -9.80295 -0.443793 -2.88898
upperback -4.48451 -0.782102 1.88087
thorax 0.888159 -0.518268 3.49194
lowerneck -15.4376 3.42304 2.00031
upperneck 30.9537 2.87965 -1.41804
head 12.9645 0.618086 -0.60851
rclavicle 2.01518e-014 6.95746e-015
rhumerus -38.6851 12.1046 -70.621
rradius 56.518
rwrist -17.0491
rhand -12.1812 -25.8488
rfingers 7.12502
rthumb 13.8824 -55.3654
lclavicle 2.01518e-014 6.95746e-015
lhumerus -29.088 -20.5946 90.1228
lradius 36.7506
lwrist 44.8954
lhand -28.0372 -1.84028
lfingers 7.12502
lthumb -1.42188 28.1347
rfemur -54.092 12.197 -4.0812
rtibia 25.8002
rfoot -8.27067 -22.341
rtoes -15.3548
lfemur -32.2459 -4.79918 -16.534
ltibia 31.0434
lfoot -20.5936 8.42136
ltoes -18.5535
19
root 8.87275 15.3172 23.153 -154.332 -4.79491 -178.977
lowerback -9.80286 -0.422114 -2.73477
upperback -4.4361 -0.763324 1.92944
thorax 0.936683 -0.509969 3.4568
lowerneck -15.3985 3.41265 1.96162
upperneck 30.9 2.90139 -1.46855
head 12.9341 0.620068 -0.617271
rclavicle -2.83268e-015 1.68967e-014
rhumerus -38.2735 12.2216 -70.8959
rradius 56.4798
rwrist -17.0099
rhand -12.2726 -25.8764
rfingers 7.12502
rthumb 13.7943 -55.3991
lclavicle -2.83268e-015 1.68967e-014
lhumerus -29.2476 -20.7033 90.246
lradius 36.8772
lwrist 44.7761
lhand -28.0049 -1.82373
lfingers 7.12502
lthumb -1.39062 28.1515
rfemur -54.0868 11.9708 -3.71344
rtibia 26.1409
rfoot -7.5677 -21.5722
rtoes -16.3442
lfemur -32.013 -4.78389 -16.4761
ltibia 31.0049
lfoot -20.7378 8.40472
ltoes -18.9145
20
root 8.92372 15.3069 23.0854 -154.292 -4.88223 -179.114
lowerback -9.79048 -0.40047 -2.53786
upperback -4.37596 -0.747079 1.97202
thorax 0.990604 -0.50294 3.39099
lowerneck -15.3683 3.40201 1.92452
upperneck 30.8399 2.92288 -1.51481
head 12.903 0.623592 -0.624379
rclavicle 3.47873e-016 1.96797e-014
rhumerus -37.8422 12.3185 -71.1988
rradius 56.4118
rwrist -16.9306
rhand -12.3338 -25.8945
rfingers 7.12502
rthumb 13.7353 -55.4212
lclavicle 3.47873e-016 1.96797e-014
lhumerus -29.3836 -20.7989 90.3351
lradius 37.0111
lwrist 44.676
lhand -27.9827 -1.80611
lfingers 7.12502
lthumb -1.36917 28.1692
rfemur -54.1337 11.7603 -3.35643
rtibia 26.571
rfoot -6.80033 -20.839
rtoes -17.1749
lfemur -31.7614 -4.78121 -16.3938
ltibia 30.9299
lfoot -20.8484 8.38326
ltoes -19.4031
21
root 8.97529 15.2994 23.0181 -154.256 -4.99897 -179.231
lowerback -9.7582 -0.379781 -2.2884
upperback -4.31084 -0.73642 2.01247
thorax 1.03891 -0.49878 3.29272
lowerneck -15.3346 3.39495 1.89643
upperneck 30.7735 2.94829 -1.56308
head 12.869 0.630101 -0.633099
rclavicle -7.05686e-015 -5.96354e-015
rhumerus -37.3972 12.3972 -71.5282
rradius 56.3105
rwrist -16.8146
rhand -12.3747 -25.8719
rfingers 7.12502
rthumb 13.6959 -55.4012
lclavicle -7.05686e-015 -5.96354e-015
lhumerus -29.5081 -20.8671 90.3921
lradius 37.1565
lwrist 44.5871
lhand -27.9666 -1.8097
lfingers 7.12502
lthumb -1.35365 28.1658
rfemur -54.2395 11.5529 -2.99487
rtibia 27.0859
rfoot -6.00068 -20.2503
rtoes -17.8342
lfemur -31.5114 -4.79353 -16.2769
ltibia 30.844
lfoot -20.9263 8.35948
ltoes -20.0014
22
root 9.02703 15.2939 22.9518 -154.223 -5.14203 -179.318
lowerback -9.70504 -0.358492 -1.97213
upperback -4.23585 -0.730165 2.05376
thorax 1.08585 -0.496935 3.15714
lowerneck -15.3144 3.39326 1.87888
upperneck 30.7012 2.98162 -1.61461
head 12.8359 0.641864 -0.643289
rclavicle -8.24956e-015 5.1684e-015
rhumerus -36.9214 12.4572 -71.8808
rradius 56.1726
rwrist -16.6658
rhand -12.4007 -25.8434
rfingers 7.12502
rthumb 13.6708 -55.3744
lclavicle -8.24956e-015 5.1684e-015
lhumerus -29.6022 -20.891 90.4084
lradius 37.3031
lwrist 44.5099
lhand -27.9327 -1.8574
lfingers 7.12502
lthumb -1.32087 28.1183
rfemur -54.4 11.3222 -2.59015
rtibia 27.679
rfoot -5.21449 -19.8671
rtoes -18.2978
lfemur -31.2943 -4.8175 -16.1143
ltibia 30.792
lfoot -20.982 8.34036
ltoes -20.7132
23
root 9.07843 15.2893 22.8869 -154.19 -5.30631 -179.358
lowerback -9.62376 -0.331255 -1.5674
upperback -4.15358 -0.723345 2.09497
thorax 1.12417 -0.495089 2.97169
lowerneck -15.3119 3.39824 1.8815
upperneck 30.6218 3.02281 -1.67029
head 12.8045 0.66008 -0.656873
rclavicle 3.08116e-015 -8.34896e-015
rhumerus -36.4157 12.4934 -72.2576
rradius 55.9969
rwrist -16.4866
rhand -12.4189 -25.8014
rfingers 7.12502
rthumb 13.6533 -55.3336
lclavicle 3.08116e-015 -8.34896e-015
lhumerus -29.6724 -20.8766 90.3802
lradius 37.4597
lwrist 44.4498
lhand -27.8891 -1.92564
lfingers 7.12502
lthumb -1.27878 28.0503
rfemur -54.599 11.041 -2.09531
rtibia 28.3372
rfoot -4.48138 -19.6664
rtoes -18.548
lfemur -31.1436 -4.84694 -15.8907
ltibia 30.8321
lfoot -21.0361 8.32744
ltoes -21.4948
24
root 9.12899 15.2841 22.8239 -154.158 -5.48391 -179.334
lowerback -9.50952 -0.293999 -1.05806
upperback -4.06238 -0.71188 2.14162
thorax 1.15243 -0.491324 2.73356
lowerneck -15.3405 3.40893 1.88536
upperneck 30.535 3.07223 -1.71437
head 12.7766 0.68518 -0.664236
rclavicle 1.78906e-015 2.38542e-014
rhumerus -35.8745 12.5061 -72.6486
rradius 55.7895
rwrist -16.2757
rhand -12.4282 -25.7544
rfingers 7.12502
rthumb 13.6444 -55.2872
lclavicle 1.78906e-015 2.38542e-014
lhumerus -29.7172 -20.8207 90.3099
lradius 37.63
lwrist 44.4121
lhand -27.8369 -2.02116
lfingers 7.12502
lthumb -1.22835 27.955
rfemur -54.8193 10.7021 -1.47965
rtibia 29.0424
rfoot -3.8434 -19.5591
rtoes -18.494
lfemur -31.0862 -4.87004 -15.5939
ltibia 31.0222
lfoot -21.1179 8.32688
ltoes -22.3225
